<svg xmlns="http://www.w3.org/2000/svg" xmlns:xlink="http://www.w3.org/1999/xlink" fill="none" version="1.1" width="24" height="24" viewBox="0 0 24 24"><defs><clipPath id="master_svg0_21_6825"><rect x="0" y="0" width="24" height="24" rx="0"/></clipPath></defs><g clip-path="url(#master_svg0_21_6825)"><g><g><path d="M16.259999999999998,3C16.46,3,16.64,3.08,16.78,3.2199999999999998L20.78,7.22C20.92,7.36,21,7.55,21,7.74L21,20.26C21,20.67,20.67,21,20.26,21L3.74,21C3.33,21,3,20.67,3,20.26L3,3.74C3,3.33,3.33,3,3.74,3L16.259999999999998,3ZM16.259999999999998,2L3.74,2C2.7800000000000002,2,2,2.7800000000000002,2,3.74L2,20.26C2,21.22,2.7800000000000002,22,3.74,22L20.26,22C21.22,22,22,21.22,22,20.26L22,7.74C22,7.28,21.82,6.84,21.49,6.51L17.490000000000002,2.51C17.16,2.18,16.72,1.999999761581,16.259999999999998,2Z" fill="#FC9000" fill-opacity="1"/></g><g><path d="M6.246081152587891,6.296080866485596Q5.590000152587891,6.952159866485596,5.590000152587891,7.879999866485596Q5.590000182390191,8.807839866485596,6.246081152587891,9.463919866485597Q6.902160152587891,10.119999866485596,7.830000152587891,10.119999866485596L13.85000015258789,10.119999866485596Q14.77784015258789,10.119999866485596,15.433920152587891,9.463919866485597Q16.09000015258789,8.807839866485596,16.09000015258789,7.879999866485596Q16.09000015258789,6.952159866485596,15.433920152587891,6.296080866485596Q14.77784015258789,5.639999866485596,13.85000015258789,5.639999866485596L7.830000152587891,5.639999866485596Q6.902160152587891,5.639999896287896,6.246081152587891,6.296080866485596ZM6.95319015258789,8.756809866485597Q6.590000152587891,8.393629866485595,6.590000152587891,7.879999866485596Q6.590000152587891,7.3663798664855955,6.95319015258789,7.003189866485595Q7.31638015258789,6.639999866485596,7.830000152587891,6.639999866485596L13.85000015258789,6.639999866485596Q14.36362015258789,6.639999866485596,14.726810152587891,7.003189866485595Q15.09000015258789,7.366369866485596,15.09000015258789,7.879999866485596Q15.09000015258789,8.393619866485595,14.726810152587891,8.756809866485597Q14.36362015258789,9.119999866485596,13.85000015258789,9.119999866485596L7.830000152587891,9.119999866485596Q7.31638015258789,9.119999866485596,6.95319015258789,8.756809866485597Z" fill-rule="evenodd" fill="#FC9000" fill-opacity="1"/></g><g><path d="M17.400000152587893,21.87999938964844L17.400000152587893,15.879999389648438Q17.400000152587893,15.367109389648437,17.03640015258789,15.003549389648438Q16.672900152587893,14.639999389648438,16.16000015258789,14.639999389648438L7.830000152587891,14.639999389648438Q7.31711015258789,14.639999389648438,6.953550152587891,15.003549389648438Q6.590000152587891,15.367109389648437,6.590000152587891,15.879999389648438L6.590000152587891,21.87999938964844L5.590000152587891,21.87999938964844L5.590000152587891,15.879999389648438Q5.590000152587891,14.952889389648437,6.2464461525878905,14.296445389648438Q6.90289015258789,13.639999389648438,7.830000152587891,13.639999389648438L16.16000015258789,13.639999389648438Q17.08710015258789,13.639999389648438,17.74360015258789,14.296445389648438Q18.400000152587893,14.952889389648437,18.400000152587893,15.879999389648438L18.400000152587893,21.87999938964844L17.400000152587893,21.87999938964844Z" fill-rule="evenodd" fill="#FC9000" fill-opacity="1"/></g></g></g></svg>