<svg xmlns="http://www.w3.org/2000/svg" xmlns:xlink="http://www.w3.org/1999/xlink" fill="none" version="1.1" width="47" height="66" viewBox="0 0 47 66"><g><g><path d="M0,63L0,59L1,59L1,60L2,60L2,61L3,61L3,62L44,62L44,61L45,61L45,60L46,60L46,59L47,59L47,63L46,63L46,64L45,64L45,65L44,65L44,66L3,66L3,65L2,65L2,64L1,64L1,63L0,63Z" fill-rule="evenodd" fill="#46127A" fill-opacity="1"/></g><g><path d="M3,60L45,60L45,3L3,3L3,60Z" fill="#141414" fill-opacity="1"/></g><g><path d="M43,1L43,0L4,0L4,1L3,1L3,2L2,2L2,3L1,3L1,4L0,4L0,59L1,59L1,60L2,60L2,61L3,61L3,62L4,62L4,63L43,63L43,62L44,62L44,61L45,61L45,60L46,60L46,59L47,59L47,4L46,4L46,3L45,3L45,2L44,2L44,1L43,1ZM44,4L43,4L43,3L4,3L4,4L3,4L3,59L4,59L4,60L43,60L43,59L44,59L44,4Z" fill-rule="evenodd" fill="#8917FB" fill-opacity="1"/></g><g transform="matrix(0,1,-1,0,79,-1)"><rect x="40" y="39" width="1" height="33" rx="0" fill="#8917FB" fill-opacity="1"/></g><g transform="matrix(0,1,-1,0,80,0)"><rect x="40" y="40" width="1" height="33" rx="0" fill="#46127A" fill-opacity="1"/></g><g><g><rect x="15" y="8" width="2" height="1" rx="0" fill="#46127A" fill-opacity="1"/></g><g transform="matrix(-1,0,0,1,64,0)"><rect x="32" y="8" width="2" height="1" rx="0" fill="#46127A" fill-opacity="1"/></g><g transform="matrix(1,0,0,-1,0,66)"><rect x="15" y="33" width="2" height="1" rx="0" fill="#46127A" fill-opacity="1"/></g><g transform="matrix(-1,0,0,-1,64,66)"><rect x="32" y="33" width="2" height="1" rx="0" fill="#46127A" fill-opacity="1"/></g><g transform="matrix(0,-1,1,0,-15,33)"><rect x="9" y="24" width="7" height="1" rx="0" fill="#46127A" fill-opacity="1"/></g><g transform="matrix(0,-1,1,0,-9,37)"><rect x="14" y="23" width="5" height="1" rx="0" fill="#8917FB" fill-opacity="1"/></g><g transform="matrix(0,-1,1,0,-2,42)"><rect x="20" y="22" width="3" height="1" rx="0" fill="#8917FB" fill-opacity="1"/></g><g transform="matrix(0,-1,-1,0,49,49)"><rect x="27" y="22" width="3" height="1" rx="0" fill="#8917FB" fill-opacity="1"/></g><g transform="matrix(1,-5.400848479553133e-8,5.400848479553133e-8,1,-9.72152726319564e-7,0.000001134178180706158)"><rect x="21" y="18" width="1" height="1" rx="0" fill="#8917FB" fill-opacity="1"/></g><g transform="matrix(-1,-5.400848479553133e-8,5.400848479553133e-8,1,51.999999027847274,0.0000014042206046838146)"><rect x="26" y="18" width="1" height="1" rx="0" fill="#8917FB" fill-opacity="1"/></g><g transform="matrix(1,-5.400848479553133e-8,5.400848479553133e-8,1,-0.0000011881866655016893,0.000001134178180706158)"><rect x="21" y="22" width="1" height="1" rx="0" fill="#8917FB" fill-opacity="1"/></g><g transform="matrix(-1,-5.400848479553133e-8,5.400848479553133e-8,1,51.999998811813334,0.0000014042206046838146)"><rect x="26" y="22" width="1" height="1" rx="0" fill="#8917FB" fill-opacity="1"/></g><g transform="matrix(0,-1,-1,0,56,56)"><rect x="33" y="23" width="5" height="1" rx="0" fill="#8917FB" fill-opacity="1"/></g><g transform="matrix(0,-1,1,0,-3,33)"><rect x="15" y="18" width="2" height="1" rx="0" fill="#8917FB" fill-opacity="1"/></g><g transform="matrix(0,-1,-1,0,50,50)"><rect x="32" y="18" width="2" height="1" rx="0" fill="#8917FB" fill-opacity="1"/></g><g transform="matrix(0,1,1,0,-8,8)"><rect x="15" y="23" width="2" height="1" rx="0" fill="#8917FB" fill-opacity="1"/></g><g transform="matrix(0,1,-1,0,55,-9)"><rect x="32" y="23" width="2" height="1" rx="0" fill="#8917FB" fill-opacity="1"/></g><g transform="matrix(0,-1,1,0,2,32)"><rect x="17" y="15" width="1" height="2" rx="0" fill="#8917FB" fill-opacity="1"/></g><g transform="matrix(0,-1,-1,0,45,45)"><rect x="30" y="15" width="1" height="2" rx="0" fill="#8917FB" fill-opacity="1"/></g><g transform="matrix(0,1,1,0,-9,9)"><rect x="17" y="26" width="1" height="2" rx="0" fill="#8917FB" fill-opacity="1"/></g><g transform="matrix(0,1,-1,0,56,-4)"><rect x="30" y="26" width="1" height="2" rx="0" fill="#8917FB" fill-opacity="1"/></g><g transform="matrix(0,-1,1,0,0,32)"><rect x="16" y="16" width="1" height="1" rx="0" fill="#8917FB" fill-opacity="1"/></g><g transform="matrix(0,-1,-1,0,47,47)"><rect x="31" y="16" width="1" height="1" rx="0" fill="#8917FB" fill-opacity="1"/></g><g transform="matrix(0,1,1,0,-9,9)"><rect x="16" y="25" width="1" height="1" rx="0" fill="#8917FB" fill-opacity="1"/></g><g transform="matrix(0,1,-1,0,56,-6)"><rect x="31" y="25" width="1" height="1" rx="0" fill="#8917FB" fill-opacity="1"/></g><g transform="matrix(0,-1,-1,0,62,62)"><rect x="38" y="24" width="7" height="1" rx="0" fill="#46127A" fill-opacity="1"/></g><g><rect x="13" y="10" width="1" height="1" rx="0" fill="#46127A" fill-opacity="1"/></g><g transform="matrix(-1,0,0,1,68,0)"><rect x="34" y="10" width="1" height="1" rx="0" fill="#46127A" fill-opacity="1"/></g><g transform="matrix(1,0,0,-1,0,62)"><rect x="13" y="31" width="1" height="1" rx="0" fill="#46127A" fill-opacity="1"/></g><g transform="matrix(-1,0,0,-1,68,62)"><rect x="34" y="31" width="1" height="1" rx="0" fill="#46127A" fill-opacity="1"/></g><g><rect x="14" y="9" width="1" height="1" rx="0" fill="#46127A" fill-opacity="1"/></g><g transform="matrix(-1,0,0,1,66,0)"><rect x="33" y="9" width="1" height="1" rx="0" fill="#46127A" fill-opacity="1"/></g><g transform="matrix(1,0,0,-1,0,64)"><rect x="14" y="32" width="1" height="1" rx="0" fill="#46127A" fill-opacity="1"/></g><g transform="matrix(-1,0,0,-1,66,64)"><rect x="33" y="32" width="1" height="1" rx="0" fill="#46127A" fill-opacity="1"/></g><g><rect x="11" y="12" width="1" height="2" rx="0" fill="#46127A" fill-opacity="1"/></g><g transform="matrix(-1,0,0,1,72,0)"><rect x="36" y="12" width="1" height="2" rx="0" fill="#46127A" fill-opacity="1"/></g><g transform="matrix(1,0,0,-1,0,58)"><rect x="11" y="29" width="1" height="2" rx="0" fill="#46127A" fill-opacity="1"/></g><g transform="matrix(-1,0,0,-1,72,58)"><rect x="36" y="29" width="1" height="2" rx="0" fill="#46127A" fill-opacity="1"/></g><g><rect x="12" y="11" width="1" height="1" rx="0" fill="#46127A" fill-opacity="1"/></g><g transform="matrix(-1,0,0,1,70,0)"><rect x="35" y="11" width="1" height="1" rx="0" fill="#46127A" fill-opacity="1"/></g><g transform="matrix(1,0,0,-1,0,60)"><rect x="12" y="30" width="1" height="1" rx="0" fill="#46127A" fill-opacity="1"/></g><g transform="matrix(-1,0,0,-1,70,60)"><rect x="35" y="30" width="1" height="1" rx="0" fill="#46127A" fill-opacity="1"/></g><g transform="matrix(0,-1,1,0,-7,27)"><rect x="10" y="17" width="3" height="1" rx="0" fill="#46127A" fill-opacity="1"/></g><g transform="matrix(0,-1,-1,0,54,54)"><rect x="37" y="17" width="3" height="1" rx="0" fill="#46127A" fill-opacity="1"/></g><g transform="matrix(0,1,1,0,-14,14)"><rect x="10" y="24" width="3" height="1" rx="0" fill="#46127A" fill-opacity="1"/></g><g transform="matrix(0,1,-1,0,61,-13)"><rect x="37" y="24" width="3" height="1" rx="0" fill="#46127A" fill-opacity="1"/></g><g transform="matrix(1,-5.400848479553133e-8,5.400848479553133e-8,1,-3.780593935687193e-7,9.181442415240326e-7)"><rect x="17" y="7" width="3" height="1" rx="0" fill="#46127A" fill-opacity="1"/></g><g transform="matrix(-1,-5.400848479553133e-8,5.400848479553133e-8,1,59.9999996219406,0.00000162025454386594)"><rect x="30" y="7" width="3" height="1" rx="0" fill="#46127A" fill-opacity="1"/></g><g transform="matrix(1,-5.400848479553133e-8,5.400848479553133e-8,-1,-0.0000018362884830480652,68.00000091814424)"><rect x="17" y="34" width="3" height="1" rx="0" fill="#46127A" fill-opacity="1"/></g><g transform="matrix(-1,-5.400848479553133e-8,5.400848479553133e-8,-1,59.99999816371152,68.00000162025455)"><rect x="30" y="34" width="3" height="1" rx="0" fill="#46127A" fill-opacity="1"/></g></g><g><g><path d="M19,45L21,45L21,51L19,51L19,45ZM29,45L27,45L27,51L29,51L29,45ZM21,51L23,51L23,53L21,53L21,51ZM27,51L25,51L25,53L27,53L27,51ZM23,53L25,53L25,55L23,55L23,53Z" fill="#FFFFFF" fill-opacity="1"/></g><g><path d="M38,45L31,45L31,55L38,55L38,53L40,53L40,51L38,51L38,49L40,49L40,47L38,47L38,45ZM38,47L33,47L33,49L38,49L38,47ZM38,51L33,51L33,53L38,53L38,51Z" fill-rule="evenodd" fill="#FFFFFF" fill-opacity="1"/></g><g><rect x="8" y="45" width="2" height="10" rx="0" fill="#FFFFFF" fill-opacity="1"/></g><g><rect x="15" y="47" width="2" height="3" rx="0" fill="#FFFFFF" fill-opacity="1"/></g><g><rect x="15" y="52" width="2" height="2" rx="0" fill="#FFFFFF" fill-opacity="1"/></g><g><rect x="15" y="52" width="2" height="3" rx="0" fill="#FFFFFF" fill-opacity="1"/></g><g><rect x="10" y="45" width="5" height="2" rx="0" fill="#FFFFFF" fill-opacity="1"/></g><g><rect x="10" y="50" width="5" height="2" rx="0" fill="#FFFFFF" fill-opacity="1"/></g></g></g></svg>